<?xml version="1.0" encoding="UTF-8"?>
<svg xmlns="http://www.w3.org/2000/svg" xmlns:xlink="http://www.w3.org/1999/xlink" width="16pt" height="16pt" viewBox="0 0 16 16" version="1.1">
<g id="surface1">
<path style=" stroke:none;fill-rule:nonzero;fill:rgb(0%,0%,0%);fill-opacity:1;" d="M 10.113281 5.628906 C 10.113281 4.996094 9.886719 4.457031 9.441406 4.011719 C 8.996094 3.566406 8.457031 3.339844 7.824219 3.339844 C 7.195312 3.339844 6.65625 3.566406 6.210938 4.011719 C 5.761719 4.457031 5.539062 4.996094 5.539062 5.628906 C 5.539062 6.257812 5.761719 6.796875 6.210938 7.242188 C 6.65625 7.691406 7.195312 7.914062 7.824219 7.914062 C 8.457031 7.914062 8.996094 7.691406 9.441406 7.242188 C 9.886719 6.796875 10.113281 6.257812 10.113281 5.628906 Z M 12.398438 5.628906 C 12.398438 6.277344 12.300781 6.808594 12.101562 7.226562 L 8.851562 14.136719 C 8.757812 14.332031 8.617188 14.488281 8.429688 14.601562 C 8.242188 14.714844 8.039062 14.769531 7.824219 14.769531 C 7.613281 14.769531 7.410156 14.714844 7.222656 14.601562 C 7.035156 14.488281 6.898438 14.332031 6.808594 14.136719 L 3.550781 7.226562 C 3.351562 6.808594 3.253906 6.277344 3.253906 5.628906 C 3.253906 4.363281 3.699219 3.289062 4.59375 2.394531 C 5.488281 1.503906 6.5625 1.054688 7.824219 1.054688 C 9.085938 1.054688 10.164062 1.503906 11.058594 2.394531 C 11.949219 3.289062 12.398438 4.363281 12.398438 5.628906 Z M 12.398438 5.628906 "/>
</g>
</svg>
